<svg width="167" height="177" viewBox="0 0 167 177" fill="none" xmlns="http://www.w3.org/2000/svg">
<g filter="url(#filter0_d_3_120)">
<path d="M5 63.6538C5 60.8924 7.23858 58.6538 10 58.6538H157C159.761 58.6538 162 60.8924 162 63.6538V81.6538C162 84.4152 159.761 86.6538 157 86.6538H10C7.23857 86.6538 5 84.4152 5 81.6538V63.6538Z" fill="#7A4E94"/>
<path d="M5 16.6538C5 13.8924 7.23858 11.6538 10 11.6538H157C159.761 11.6538 162 13.8924 162 16.6538V34.6538C162 37.4152 159.761 39.6538 157 39.6538H10C7.23857 39.6538 5 37.4152 5 34.6538V16.6538Z" fill="#7A4E94"/>
<path d="M5 110.654C5 107.892 7.23858 105.654 10 105.654H157C159.761 105.654 162 107.892 162 110.654V128.654C162 131.415 159.761 133.654 157 133.654H10C7.23857 133.654 5 131.415 5 128.654V110.654Z" fill="#7A4E94"/>
<path d="M71.9141 8.40614C76.0062 -1.46872 89.9938 -1.46871 94.0859 8.40615L153.2 151.06C156.474 158.961 150.667 167.654 142.114 167.654H23.8859C15.333 167.654 9.52579 158.961 12.8 151.06L71.9141 8.40614Z" fill="#D8B2B3"/>
<path d="M86.025 69.6288C87.775 68.8121 90.1667 68.4038 93.2 68.4038C96.2333 68.4038 99.85 69.6288 104.05 72.0788C108.25 74.4121 110.35 77.2121 110.35 80.4788C110.35 83.6288 109.067 86.4871 106.5 89.0538C104.05 91.6205 101.25 92.9038 98.1 92.9038C93.3167 92.9038 89.9917 90.6871 88.125 86.2538C87.8917 85.5538 87.4833 85.2038 86.9 85.2038C86.4333 85.2038 84.5083 85.9038 81.125 87.3038C77.8583 88.7038 75.6417 89.6955 74.475 90.2788C73.3083 90.8621 72.725 91.4455 72.725 92.0288C72.725 92.4955 73.5417 93.1371 75.175 93.9538C95.9417 99.5538 106.325 108.129 106.325 119.679C106.325 123.762 104.692 128.02 101.425 132.454C98.275 136.77 93.7833 140.329 87.95 143.129C82.1167 145.929 76.5167 147.329 71.15 147.329C65.7833 147.329 61.9917 145.87 59.775 142.954C57.675 140.037 56.625 135.837 56.625 130.354C56.625 124.87 58.55 120.787 62.4 118.104C67.5333 114.72 71.7333 113.029 75 113.029C75.8167 113.029 76.225 113.262 76.225 113.729C76.225 114.079 75.2917 114.779 73.425 115.829C71.675 116.879 69.75 118.395 67.65 120.379C65.6667 122.362 64.675 123.995 64.675 125.279C64.675 126.445 66.075 127.029 68.875 127.029C76.3417 127.029 83.6917 124.929 90.925 120.729C92.5583 119.912 93.375 118.979 93.375 117.929C93.375 116.762 92.15 115.595 89.7 114.429C87.25 113.262 83.1083 111.57 77.275 109.354C71.5583 107.137 67.0083 105.27 63.625 103.754C60.3583 102.12 58.725 99.4955 58.725 95.8788C58.725 94.8288 58.9583 93.3705 59.425 91.5038C60.0083 89.5205 60.3583 88.1788 60.475 87.4788C61.0583 83.3955 62.8667 80.5955 65.9 79.0788C69.05 77.5621 75.7583 74.4121 86.025 69.6288Z" fill="#3F1A4E"/>
<path d="M71.6592 7.74023C76.1671 -2.06917 90.3519 -1.91082 94.5479 8.21484L95.7656 11.1533H157C160.037 11.1533 162.5 13.616 162.5 16.6533V34.6533C162.5 37.6909 160.038 40.1533 157 40.1533H107.783L115.242 58.1533H157C160.037 58.1533 162.5 60.616 162.5 63.6533V81.6533C162.5 84.6909 160.038 87.1533 157 87.1533H127.259L134.719 105.153H157C160.037 105.153 162.5 107.616 162.5 110.653V128.653C162.5 131.691 160.038 134.153 157 134.153H146.735L153.662 150.868L153.814 151.255C156.883 159.38 150.884 168.153 142.114 168.153H23.8857C14.9765 168.153 8.92724 159.099 12.3379 150.868L19.2646 134.153H10C6.96243 134.153 4.5 131.691 4.5 128.653V110.653C4.50026 107.616 6.96259 105.153 10 105.153H31.2812L38.7412 87.1533H10C6.96243 87.1533 4.5 84.6909 4.5 81.6533V63.6533C4.50026 60.616 6.96259 58.1533 10 58.1533H50.7578L58.2168 40.1533H10C6.96243 40.1533 4.5 37.6909 4.5 34.6533V16.6533C4.50025 13.616 6.96259 11.1533 10 11.1533H70.2344L71.4521 8.21484L71.6592 7.74023Z" stroke="black"/>
</g>
<defs>
<filter id="filter0_d_3_120" x="0" y="0" width="167" height="176.654" filterUnits="userSpaceOnUse" color-interpolation-filters="sRGB">
<feFlood flood-opacity="0" result="BackgroundImageFix"/>
<feColorMatrix in="SourceAlpha" type="matrix" values="0 0 0 0 0 0 0 0 0 0 0 0 0 0 0 0 0 0 127 0" result="hardAlpha"/>
<feOffset dy="4"/>
<feGaussianBlur stdDeviation="2"/>
<feComposite in2="hardAlpha" operator="out"/>
<feColorMatrix type="matrix" values="0 0 0 0 0 0 0 0 0 0 0 0 0 0 0 0 0 0 0.25 0"/>
<feBlend mode="normal" in2="BackgroundImageFix" result="effect1_dropShadow_3_120"/>
<feBlend mode="normal" in="SourceGraphic" in2="effect1_dropShadow_3_120" result="shape"/>
</filter>
</defs>
</svg>
